<svg width="33" height="33" viewBox="0 0 33 33" fill="none" xmlns="http://www.w3.org/2000/svg">
<path d="M25.125 5.5H22.375V4.125C22.375 3.76033 22.2301 3.41059 21.9723 3.15273C21.7144 2.89487 21.3647 2.75 21 2.75C20.6353 2.75 20.2856 2.89487 20.0277 3.15273C19.7699 3.41059 19.625 3.76033 19.625 4.125V5.5H11.375V4.125C11.375 3.76033 11.2301 3.41059 10.9723 3.15273C10.7144 2.89487 10.3647 2.75 10 2.75C9.63533 2.75 9.28559 2.89487 9.02773 3.15273C8.76987 3.41059 8.625 3.76033 8.625 4.125V5.5H5.875C4.78098 5.5 3.73177 5.9346 2.95818 6.70818C2.1846 7.48177 1.75 8.53098 1.75 9.625V26.125C1.75 27.219 2.1846 28.2682 2.95818 29.0418C3.73177 29.8154 4.78098 30.25 5.875 30.25H25.125C26.219 30.25 27.2682 29.8154 28.0418 29.0418C28.8154 28.2682 29.25 27.219 29.25 26.125V9.625C29.25 8.53098 28.8154 7.48177 28.0418 6.70818C27.2682 5.9346 26.219 5.5 25.125 5.5ZM26.5 26.125C26.5 26.4897 26.3551 26.8394 26.0973 27.0973C25.8394 27.3551 25.4897 27.5 25.125 27.5H5.875C5.51033 27.5 5.16059 27.3551 4.90273 27.0973C4.64487 26.8394 4.5 26.4897 4.5 26.125V16.5H26.5V26.125ZM26.5 13.75H4.5V9.625C4.5 9.26033 4.64487 8.91059 4.90273 8.65273C5.16059 8.39487 5.51033 8.25 5.875 8.25H8.625V9.625C8.625 9.98967 8.76987 10.3394 9.02773 10.5973C9.28559 10.8551 9.63533 11 10 11C10.3647 11 10.7144 10.8551 10.9723 10.5973C11.2301 10.3394 11.375 9.98967 11.375 9.625V8.25H19.625V9.625C19.625 9.98967 19.7699 10.3394 20.0277 10.5973C20.2856 10.8551 20.6353 11 21 11C21.3647 11 21.7144 10.8551 21.9723 10.5973C22.2301 10.3394 22.375 9.98967 22.375 9.625V8.25H25.125C25.4897 8.25 25.8394 8.39487 26.0973 8.65273C26.3551 8.91059 26.5 9.26033 26.5 9.625V13.75Z" fill="white"/>
</svg>
