<svg width="33" height="33" viewBox="0 0 33 33" fill="none" xmlns="http://www.w3.org/2000/svg">
<path d="M26.5 20.625C26.5 23.188 26.5 24.4695 26.082 25.4788C25.8056 26.1461 25.4004 26.7525 24.8897 27.2633C24.3789 27.7741 23.7725 28.1792 23.1051 28.4556C22.0945 28.875 20.813 28.875 18.25 28.875H14.125C8.9385 28.875 6.34525 28.875 4.73375 27.2635C3.125 25.6534 3.125 23.0601 3.125 17.875V9.625C3.125 8.16631 3.70446 6.76736 4.73591 5.73591C5.76736 4.70446 7.16631 4.125 8.625 4.125" stroke="white" stroke-width="1.5" stroke-linecap="round" stroke-linejoin="round"/>
<path d="M12.75 11.6875L13.3468 17.1449C13.3721 17.3686 13.4555 17.5819 13.5886 17.7635C13.7217 17.9451 13.9 18.0887 14.1058 18.1803C15.049 18.5859 16.8159 19.25 18.25 19.25C19.6841 19.25 21.451 18.5859 22.3942 18.1803C22.6002 18.0889 22.7788 17.9453 22.9122 17.7637C23.0456 17.5821 23.1291 17.3688 23.1546 17.1449L23.75 11.6875M27.1875 10.3125V15.4963M18.25 5.5L8.625 9.625L18.25 13.75L27.875 9.625L18.25 5.5Z" stroke="white" stroke-width="1.5" stroke-linecap="round" stroke-linejoin="round"/>
</svg>
