<svg width="33" height="33" viewBox="0 0 33 33" fill="none" xmlns="http://www.w3.org/2000/svg">
<path d="M11.7188 30.25L11.1688 25.85C10.8709 25.7354 10.5904 25.5979 10.3273 25.4375C10.0642 25.2771 9.80615 25.1052 9.55315 24.9219L5.46252 26.6406L1.68127 20.1094L5.2219 17.4281C5.19898 17.2677 5.18752 17.1133 5.18752 16.9648V16.0366C5.18752 15.8872 5.19898 15.7323 5.2219 15.5719L1.68127 12.8906L5.46252 6.35938L9.55315 8.07812C9.80523 7.89479 10.0688 7.72292 10.3438 7.5625C10.6188 7.40208 10.8938 7.26458 11.1688 7.15L11.7188 2.75H19.2813L19.8313 7.15C20.1292 7.26458 20.4101 7.40208 20.6741 7.5625C20.9381 7.72292 21.1957 7.89479 21.4469 8.07812L25.5375 6.35938L29.3188 12.8906L25.7781 15.5719C25.8011 15.7323 25.8125 15.8872 25.8125 16.0366V16.9634C25.8125 17.1128 25.7896 17.2677 25.7438 17.4281L29.2844 20.1094L25.5031 26.6406L21.4469 24.9219C21.1948 25.1052 20.9313 25.2771 20.6563 25.4375C20.3813 25.5979 20.1063 25.7354 19.8313 25.85L19.2813 30.25H11.7188ZM15.5688 21.3125C16.8979 21.3125 18.0323 20.8427 18.9719 19.9031C19.9115 18.9635 20.3813 17.8292 20.3813 16.5C20.3813 15.1708 19.9115 14.0365 18.9719 13.0969C18.0323 12.1573 16.8979 11.6875 15.5688 11.6875C14.2167 11.6875 13.0764 12.1573 12.1478 13.0969C11.2192 14.0365 10.7554 15.1708 10.7563 16.5C10.7572 17.8292 11.2215 18.9635 12.1491 19.9031C13.0768 20.8427 14.2167 21.3125 15.5688 21.3125Z" fill="white"/>
</svg>
